<svg width="24" height="24" viewBox="0 0 24 24" fill="none" xmlns="http://www.w3.org/2000/svg">
<g clip-path="url(#clip0_799_39)">
<path d="M6.97123 4.5C7.66273 4.5 8.30174 4.5525 8.88824 4.71C9.47324 4.815 9.95474 5.034 10.3822 5.2965C10.8097 5.559 11.1277 5.9355 11.3437 6.417C11.5537 6.897 11.6677 7.4835 11.6677 8.1225C11.6677 8.8665 11.5087 9.5055 11.1337 9.9855C10.8112 10.4655 10.2847 10.8945 9.63824 11.211C10.5472 11.475 11.2387 11.955 11.6602 12.594C12.0817 13.233 12.3517 14.0295 12.3517 14.9385C12.3517 15.6825 12.1942 16.3215 11.9242 16.8555C11.6559 17.3937 11.2515 17.8523 10.7512 18.186C10.2712 18.5085 9.68474 18.771 9.04574 18.93C8.41987 19.0957 7.7761 19.1844 7.12873 19.194L-0.00976562 19.2045V4.5H6.97123ZM6.54373 10.467C7.12873 10.467 7.60874 10.3095 7.97924 10.0395C8.34824 9.7695 8.51174 9.294 8.51174 8.709C8.51174 8.385 8.45924 8.07 8.35424 7.8585C8.23963 7.64481 8.07492 7.46209 7.87424 7.326C7.65695 7.20667 7.42426 7.11784 7.18274 7.062C6.91874 7.0095 6.64874 7.0095 6.33224 7.0095H3.24523V10.4745C3.24523 10.467 6.54373 10.467 6.54373 10.467ZM6.70123 16.7565C7.02373 16.7565 7.34023 16.704 7.61023 16.6515C7.87423 16.599 8.14424 16.4925 8.35424 16.3275C8.56424 16.1625 8.72924 16.005 8.88824 15.7425C8.99324 15.4785 9.09824 15.156 9.09824 14.781C9.09824 14.037 8.88823 13.503 8.45923 13.128C8.03173 12.8055 7.44523 12.648 6.75373 12.648H3.24523V16.749H6.70273L6.70123 16.7565ZM16.9882 16.704C17.4162 17.131 18.0552 17.344 18.9052 17.343C19.4902 17.343 20.0242 17.184 20.4532 16.914C20.8792 16.594 21.1442 16.274 21.2482 15.954H23.8582C23.4292 17.2305 22.7902 18.1395 21.9412 18.726C21.0922 19.2585 20.0767 19.575 18.8512 19.575C18.0675 19.5798 17.29 19.4347 16.5607 19.1475C15.9033 18.9049 15.317 18.5017 14.8552 17.9745C14.3615 17.4842 13.9948 16.8807 13.7872 16.2165C13.5247 15.525 13.4122 14.781 13.4122 13.9245C13.4122 13.128 13.5172 12.3765 13.7872 11.685C14.0572 10.995 14.4262 10.407 14.9077 9.8745C15.3877 9.3945 15.9742 8.9655 16.6132 8.7015C17.3256 8.41718 18.0858 8.27206 18.8527 8.274C19.7617 8.274 20.5582 8.4315 21.2497 8.8065C21.9397 9.1815 22.4752 9.6045 22.9027 10.2435C23.3302 10.8285 23.6467 11.52 23.8642 12.2655C23.9692 13.0095 24.0217 13.7595 23.9692 14.61H16.2442C16.2442 15.48 16.5592 16.275 16.9882 16.704ZM20.3482 11.106C19.9732 10.731 19.3852 10.5195 18.6937 10.5195C18.2137 10.5195 17.8447 10.6245 17.5222 10.7835C17.1997 10.9425 16.9882 11.1585 16.7782 11.3685C16.5824 11.5745 16.4519 11.8339 16.4032 12.114C16.3492 12.3765 16.2982 12.594 16.2982 12.804H21.0922C20.9872 12.015 20.7187 11.481 20.3482 11.106ZM15.6577 5.514H21.6247V6.9495H15.6577V5.514Z" fill="#EFEFEF"/>
</g>
<defs>
<clipPath id="clip0_799_39">
<rect width="24" height="24" fill="white" transform="translate(-0.00976562)"/>
</clipPath>
</defs>
</svg>
