<svg width="24" height="24" viewBox="0 0 24 24" fill="none" xmlns="http://www.w3.org/2000/svg">
<g clip-path="url(#clip0_781_2827)">
<path d="M12.0667 2.99854H12.2002C13.4332 3.00304 19.6807 3.04804 21.3652 3.50104C21.8745 3.63929 22.3385 3.90877 22.711 4.28255C23.0834 4.65633 23.3513 5.12131 23.4877 5.63104C23.6392 6.20104 23.7457 6.95554 23.8177 7.73404L23.8327 7.89004L23.8657 8.28004L23.8777 8.43604C23.9752 9.80704 23.9872 11.091 23.9887 11.3715V11.484C23.9872 11.775 23.9737 13.146 23.8657 14.574L23.8537 14.7315L23.8402 14.8875C23.7652 15.7455 23.6542 16.5975 23.4877 17.2245C23.3513 17.7343 23.0834 18.1992 22.711 18.573C22.3385 18.9468 21.8745 19.2163 21.3652 19.3545C19.6252 19.8225 13.0117 19.8555 12.0952 19.857H11.8822C11.4187 19.857 9.50173 19.848 7.49173 19.779L7.23673 19.77L7.10623 19.764L6.84973 19.7535L6.59323 19.743C4.92823 19.6695 3.34273 19.551 2.61223 19.353C2.10317 19.2149 1.63926 18.9457 1.26681 18.5722C0.894364 18.1987 0.626419 17.734 0.489734 17.2245C0.323234 16.599 0.212234 15.7455 0.137234 14.8875L0.125234 14.73L0.113234 14.574C0.0387795 13.5577 -0.00224265 12.5391 -0.00976562 11.52L-0.00976562 11.3355C-0.00676562 11.013 0.00523438 9.89854 0.0862344 8.66854L0.0967344 8.51404L0.101234 8.43604L0.113234 8.28004L0.146234 7.89004L0.161234 7.73404C0.233234 6.95554 0.339734 6.19954 0.491234 5.63104C0.62769 5.12131 0.895532 4.65633 1.26799 4.28255C1.64046 3.90877 2.10449 3.63929 2.61373 3.50104C3.34423 3.30604 4.92973 3.18604 6.59473 3.11104L6.84973 3.10054L7.10773 3.09154L7.23673 3.08704L7.49323 3.07654C8.9208 3.03064 10.3489 3.00514 11.7772 3.00004L12.0667 2.99854ZM9.59023 7.81354V15.0405L15.8257 11.4285L9.59023 7.81354Z" fill="#EFEFEF"/>
</g>
<defs>
<clipPath id="clip0_781_2827">
<rect width="24" height="24" fill="white" transform="translate(-0.00976562)"/>
</clipPath>
</defs>
</svg>
