<svg width="16" height="16" viewBox="0 0 16 16" fill="none" xmlns="http://www.w3.org/2000/svg">
<path fill-rule="evenodd" clip-rule="evenodd" d="M2 8.25036C2 8.05147 2.07901 7.86073 2.21965 7.72009C2.36028 7.57945 2.55103 7.50045 2.74992 7.50045H11.4384L8.21831 4.2818C8.07749 4.14099 7.99838 3.95001 7.99838 3.75086C7.99838 3.55172 8.07749 3.36074 8.21831 3.21992C8.35912 3.07911 8.55011 3 8.74925 3C8.94839 3 9.13937 3.07911 9.28019 3.21992L13.7797 7.71942C13.8495 7.78908 13.9049 7.87184 13.9427 7.96294C13.9805 8.05405 14 8.15172 14 8.25036C14 8.349 13.9805 8.44667 13.9427 8.53778C13.9049 8.62889 13.8495 8.71164 13.7797 8.7813L9.28019 13.2808C9.13937 13.4216 8.94839 13.5007 8.74925 13.5007C8.55011 13.5007 8.35912 13.4216 8.21831 13.2808C8.07749 13.14 7.99838 12.949 7.99838 12.7499C7.99838 12.5507 8.07749 12.3597 8.21831 12.2189L11.4384 9.00028H2.74992C2.55103 9.00028 2.36028 8.92127 2.21965 8.78063C2.07901 8.64 2 8.44925 2 8.25036Z" fill="#EFEFEF"/>
</svg>
