<svg width="11" height="16" viewBox="0 0 11 16" fill="none" xmlns="http://www.w3.org/2000/svg">
<path d="M1.14776 9.03802L8.71226 15.6559C9.60366 16.4369 11.0001 15.8022 11.0001 14.6169V1.38106C11.0003 1.11579 10.9241 0.856073 10.7805 0.633015C10.6369 0.409956 10.4321 0.233013 10.1905 0.123373C9.94898 0.0137337 9.68094 -0.0239541 9.41852 0.014823C9.15609 0.0536002 8.9104 0.167198 8.71088 0.342014L1.14914 6.95992C1.00092 7.08944 0.882136 7.24916 0.800745 7.42838C0.719355 7.60759 0.677246 7.80214 0.677246 7.99897C0.677246 8.1958 0.719355 8.39035 0.800745 8.56956C0.882136 8.74878 1.00092 8.9085 1.14914 9.03802H1.14776Z" fill="#A0A0A0"/>
</svg>
