<svg width="78" height="39" viewBox="0 0 78 39" fill="none" xmlns="http://www.w3.org/2000/svg">
<path d="M0.726875 38V36.08C1.78288 36.048 2.63088 35.968 3.27088 35.84C3.94288 35.68 4.45488 35.408 4.80688 35.024C5.19088 34.608 5.44688 34.064 5.57488 33.392C5.70288 32.688 5.76688 31.76 5.76688 30.608V8.432C5.76688 7.312 5.71888 6.416 5.62288 5.744C5.52688 5.04 5.31888 4.496 4.99888 4.112C4.67888 3.696 4.23088 3.424 3.65488 3.296C3.11088 3.136 2.39088 3.024 1.49488 2.96V1.04H19.7349C22.8069 1.04 25.6389 1.52 28.2309 2.48C30.8229 3.44 33.0629 4.768 34.9509 6.464C36.8389 8.16 38.3109 10.176 39.3669 12.512C40.4229 14.848 40.9509 17.392 40.9509 20.144C40.9509 22.768 40.4549 25.184 39.4629 27.392C38.4709 29.568 37.0789 31.44 35.2869 33.008C33.5269 34.576 31.3989 35.808 28.9029 36.704C26.4389 37.568 23.7189 38 20.7429 38H0.726875ZM13.6389 3.968C13.0949 3.968 12.8229 4.24 12.8229 4.784V29.6C12.8229 31.456 13.3989 32.832 14.5509 33.728C15.7029 34.624 17.4789 35.072 19.8789 35.072C24.0709 35.072 27.2869 33.808 29.5269 31.28C31.7989 28.752 32.9349 25.072 32.9349 20.24C32.9349 17.68 32.6309 15.392 32.0229 13.376C31.4149 11.36 30.5349 9.664 29.3829 8.288C28.2309 6.88 26.8229 5.808 25.1589 5.072C23.5269 4.336 21.6869 3.968 19.6389 3.968H13.6389ZM41.8123 0.559999C44.6923 0.559999 47.3803 1.056 49.8763 2.048C52.3723 3.04 54.5323 4.4 56.3563 6.128C58.2123 7.856 59.6683 9.888 60.7243 12.224C61.7803 14.56 62.3083 17.088 62.3083 19.808C62.3083 22.4 61.7643 24.832 60.6763 27.104C59.6203 29.376 58.1643 31.36 56.3083 33.056C54.4843 34.72 52.3243 36.048 49.8283 37.04C47.3323 38 44.6603 38.48 41.8123 38.48C38.9643 38.48 36.2923 38 33.7963 37.04C31.3003 36.048 29.1243 34.72 27.2683 33.056C25.4123 31.36 23.9563 29.376 22.9003 27.104C21.8443 24.832 21.3163 22.4 21.3163 19.808C21.3163 17.088 21.8443 14.56 22.9003 12.224C23.9563 9.888 25.3963 7.856 27.2203 6.128C29.0763 4.4 31.2523 3.04 33.7483 2.048C36.2443 1.056 38.9323 0.559999 41.8123 0.559999ZM41.8123 35.36C43.6683 35.36 45.3483 35.008 46.8523 34.304C48.3563 33.568 49.6363 32.544 50.6923 31.232C51.7483 29.888 52.5483 28.272 53.0923 26.384C53.6683 24.464 53.9563 22.32 53.9563 19.952C53.9563 17.456 53.6683 15.216 53.0923 13.232C52.5483 11.216 51.7483 9.504 50.6923 8.096C49.6363 6.656 48.3563 5.568 46.8523 4.832C45.3483 4.064 43.6683 3.68 41.8123 3.68C39.9243 3.68 38.2283 4.064 36.7243 4.832C35.2523 5.568 33.9883 6.656 32.9323 8.096C31.8763 9.504 31.0603 11.216 30.4843 13.232C29.9403 15.216 29.6683 17.456 29.6683 19.952C29.6683 22.32 29.9403 24.464 30.4843 26.384C31.0603 28.272 31.8763 29.888 32.9323 31.232C33.9883 32.544 35.2523 33.568 36.7243 34.304C38.2283 35.008 39.9243 35.36 41.8123 35.36ZM74.3735 1.04H76.7255L75.7655 13.184H73.8455C73.1735 10.24 71.8615 7.92 69.9095 6.224C67.9895 4.528 65.6535 3.68 62.9015 3.68C61.0135 3.68 59.3335 4.064 57.8615 4.832C56.3895 5.568 55.1415 6.64 54.1175 8.048C53.1255 9.424 52.3575 11.12 51.8135 13.136C51.3015 15.12 51.0455 17.36 51.0455 19.856C51.0455 24.816 52.0535 28.64 54.0695 31.328C56.1175 33.984 59.1255 35.312 63.0935 35.312C66.2935 35.312 68.9335 34.448 71.0135 32.72C73.1255 30.992 74.6295 28.416 75.5255 24.992H77.6375V38H75.3815L74.7095 34.208C71.1895 37.056 66.9175 38.48 61.8935 38.48C58.9815 38.48 56.3415 38.048 53.9735 37.184C51.6055 36.32 49.5895 35.104 47.9255 33.536C46.2615 31.936 44.9655 30 44.0375 27.728C43.1415 25.456 42.6935 22.928 42.6935 20.144C42.6935 17.232 43.1735 14.576 44.1335 12.176C45.0935 9.776 46.4375 7.712 48.1655 5.984C49.9255 4.256 52.0055 2.928 54.4055 2C56.8375 1.04 59.5255 0.559999 62.4695 0.559999C64.4215 0.559999 66.2455 0.831999 67.9415 1.376C69.6375 1.92 71.4775 2.8 73.4615 4.016L74.3735 1.04Z" fill="#EFEFEF"/>
</svg>
