<svg width="32" height="32" viewBox="0 0 32 32" fill="none" xmlns="http://www.w3.org/2000/svg">
    <g clip-path="url(#clip0_764_1252)">
    <path d="M27.498 1.0235L27.8015 0.719945C28.03 0.4916 28.3012 0.310493 28.5997 0.186964C28.8981 0.063436 29.218 -9.44841e-05 29.541 1.05469e-07C29.864 9.4695e-05 30.1839 0.0638126 30.4823 0.187516C30.7806 0.311219 31.0517 0.492484 31.2801 0.720963C31.5084 0.949442 31.6895 1.22066 31.813 1.51913C31.9366 1.8176 32.0001 2.13748 32 2.4605C31.9999 2.78353 31.9362 3.10337 31.8125 3.40177C31.6888 3.70017 31.5075 3.97128 31.2791 4.19962L30.9755 4.50114C31.4948 5.08352 31.7716 5.84247 31.7493 6.62242C31.7269 7.40236 31.4071 8.14421 30.8553 8.6959L9.88828 29.6657C9.75721 29.796 9.59312 29.8883 9.41361 29.9325L1.26474 31.9698C1.09421 32.0123 0.91559 32.0099 0.746251 31.9629C0.576911 31.9159 0.422609 31.8259 0.298344 31.7016C0.174078 31.5774 0.0840763 31.4231 0.037087 31.2537C-0.00990225 31.0844 -0.0122805 30.9058 0.0301835 30.7352L2.0674 22.5861C2.11197 22.4073 2.20421 22.244 2.33428 22.1134L21.9771 2.46997C21.7807 2.3317 21.5417 2.26731 21.3023 2.28819C21.063 2.30907 20.8388 2.41386 20.6692 2.58406L13.9627 9.29283C13.868 9.38754 13.7556 9.46266 13.6318 9.51392C13.5081 9.56518 13.3755 9.59156 13.2415 9.59156C13.1076 9.59156 12.975 9.56518 12.8512 9.51392C12.7275 9.46266 12.6151 9.38754 12.5204 9.29283C12.4257 9.19812 12.3505 9.08568 12.2993 8.96194C12.248 8.8382 12.2216 8.70557 12.2216 8.57163C12.2216 8.43769 12.248 8.30506 12.2993 8.18132C12.3505 8.05758 12.4257 7.94514 12.5204 7.85043L19.231 1.1437C19.783 0.591627 20.5254 0.271785 21.3058 0.249812C22.0862 0.227839 22.8454 0.505401 23.4276 1.02554C23.9874 0.525259 24.7117 0.248542 25.4624 0.248166C26.2131 0.247791 26.9377 0.523783 27.498 1.0235Z" fill="#ED932A"/>
    </g>
    <defs>
    <clipPath id="clip0_764_1252">
    <rect width="32" height="32" fill="white"/>
    </clipPath>
    </defs>
</svg>
