<svg width="32" height="32" viewBox="0 0 32 32" fill="none" xmlns="http://www.w3.org/2000/svg">
<g clip-path="url(#clip0_793_40)">
<path d="M22.7 16.6739C22.7 15.2759 21.86 14.3979 20.698 14.3979C19.53 14.3979 18.79 15.2859 18.79 16.8759V17.7819C18.79 19.3819 19.538 20.2779 20.734 20.2779C21.91 20.2779 22.702 19.3979 22.702 17.8779L22.7 16.6739ZM11.874 17.1479L10.406 12.2959H10.3L8.83197 17.1479H11.874Z" fill="#ED932A"/>
<path d="M4 4C2.93913 4 1.92172 4.42143 1.17157 5.17157C0.421427 5.92172 0 6.93913 0 8L0 24C0 25.0609 0.421427 26.0783 1.17157 26.8284C1.92172 27.5786 2.93913 28 4 28H28C29.0609 28 30.0783 27.5786 30.8284 26.8284C31.5786 26.0783 32 25.0609 32 24V8C32 6.93913 31.5786 5.92172 30.8284 5.17157C30.0783 4.42143 29.0609 4 28 4H4ZM16.418 16.64C16.418 14.08 17.806 12.552 19.924 12.552C21.234 12.552 22.236 13.14 22.596 14.09H22.702V9.37H25.022V22H22.746V20.506H22.632C22.342 21.454 21.252 22.114 19.898 22.114C17.788 22.114 16.418 20.586 16.418 18.028V16.64ZM8.338 18.916L7.4 22H5L9.026 10.002H11.8L15.81 22H13.288L12.348 18.916H8.338Z" fill="#ED932A"/>
</g>
<defs>
<clipPath id="clip0_793_40">
<rect width="32" height="32" fill="white"/>
</clipPath>
</defs>
</svg>
