<svg width="32" height="32" viewBox="0 0 32 32" fill="none" xmlns="http://www.w3.org/2000/svg">
<g clip-path="url(#clip0_764_1267)">
<path d="M8.6575 1.78437L8.64875 1.78937L8.64 1.79375L8.6225 1.8025L8.58062 1.825L8.54937 1.84125L8.53813 1.84687L8.49625 1.86937L8.45438 1.89188L8.4125 1.91437C8.03674 2.11769 7.66916 2.33578 7.31063 2.56813L7.27063 2.59375L7.15188 2.67188L7.1125 2.69875L6.995 2.77813L6.95563 2.805L6.8775 2.85875L6.83875 2.88562L6.8 2.91313L6.76125 2.94062L6.74188 2.95375L6.7225 2.96813L6.68375 2.99563L6.64563 3.02312L6.60687 3.05125L6.58563 3.06625L6.56875 3.07875L6.53062 3.1075L6.49188 3.13562L6.45375 3.16375L6.43062 3.18062L6.41563 3.1925L6.41313 3.19438L6.30188 3.27813L6.2775 3.29688L6.15125 3.39438L6.12563 3.41438L6.11375 3.42438L6.07625 3.45375L6.045 3.47875C5.57065 3.8564 5.11805 4.26059 4.68937 4.68937C3.69682 5.68172 2.83848 6.79977 2.13625 8.015L2.13063 8.02437L2.125 8.03438L2.12125 8.04062L2.10063 8.07687L2.07687 8.11875C0.755625 10.4475 0 13.1406 0 16.0094C0 16.2594 0.00625 16.5075 0.0175 16.7556L0.019375 16.7981C0.066875 17.8094 0.214375 18.8219 0.45375 19.8056C0.460625 19.8338 0.46875 19.8612 0.476875 19.8881C0.956875 21.8044 1.78437 23.5944 2.895 25.1812C2.92125 25.2262 2.94937 25.2706 2.98 25.3137C3.57312 26.1437 4.23938 26.9044 4.97625 27.6094C5.005 27.6362 5.035 27.6612 5.06437 27.685C6.46562 29 8.10875 30.0688 9.93 30.8162C9.975 30.84 10.0225 30.8612 10.0712 30.8806C11.0406 31.2638 11.97 31.5294 12.9919 31.7344C13.0356 31.7419 13.0788 31.7469 13.1213 31.7512C13.88 31.865 14.5981 31.3587 14.7406 30.5987C14.8794 29.8537 14.415 29.1356 13.6925 28.9494C12.9762 28.66 11.8725 28.5056 11.1225 28.2094L11.0787 28.1931C9.58504 27.5896 8.21531 26.7161 7.03813 25.6162C7.00938 25.5825 6.97813 25.5512 6.945 25.5206C6.34063 24.9406 5.79688 24.3181 5.31 23.6369C5.29 23.6087 5.26875 23.5819 5.2475 23.5562C4.31313 22.2231 3.6225 20.7106 3.23375 19.0881L3.22438 19.0494L3.22187 19.04L3.21563 19.0112L3.20688 18.9737L3.19812 18.935L3.19 18.9L3.18937 18.8969L3.18062 18.8587L3.1725 18.8206L3.16438 18.7825L3.15937 18.76L3.15625 18.7437L3.14812 18.7056L3.14 18.6675L3.1325 18.6294L3.13 18.6194L3.125 18.5906L3.11687 18.5525L3.10938 18.5144L3.1025 18.4781V18.4756L3.095 18.4375L3.08812 18.3988L3.08063 18.3606L3.07625 18.3363L3.07437 18.3225L3.0675 18.2838L3.06063 18.245L3.05375 18.2069L3.05188 18.1944L3.0475 18.1681L3.04125 18.13L3.035 18.0912L3.02875 18.0531V18.0513L3.02312 18.0144L3.0075 17.9081L3.00563 17.8981L3 17.86L2.98938 17.7825L2.9875 17.7644L2.98438 17.7437C2.96625 17.6069 2.95063 17.4694 2.93688 17.3312L2.935 17.3175C2.92125 17.1769 2.91 17.0356 2.90062 16.8944L2.9 16.8888L2.8925 16.7712L2.89125 16.7475L2.89062 16.7319L2.88875 16.6931L2.88687 16.6537C2.87625 16.44 2.87125 16.225 2.87125 16.0094C2.87125 14.0281 3.30938 12.1506 4.09375 10.4663L4.09812 10.4569L4.11062 10.4312L4.12687 10.3956L4.14375 10.3606L4.16062 10.3256L4.16687 10.3125L4.1775 10.2906L4.19438 10.2556L4.21187 10.2206C4.28625 10.0694 4.36375 9.91937 4.44375 9.77125L4.45687 9.74625L4.46187 9.73687L4.48063 9.7025L4.5 9.66813L4.51875 9.63375L4.53312 9.6075L4.5375 9.6C5.12876 8.54393 5.86275 7.5744 6.71875 6.71875C7.08069 6.35743 7.46298 6.01708 7.86375 5.69938L7.895 5.67562L7.8975 5.67312L7.92562 5.65125C8.20625 5.43187 8.49625 5.22312 8.79438 5.02688L8.81625 5.01312L8.91187 4.95062L8.91438 4.94875L8.9275 4.94063L8.9475 4.92812L8.98063 4.90688L9.01375 4.88625L9.04688 4.865L9.06125 4.85625L9.08 4.84438L9.11312 4.82438L9.14625 4.80375L9.15125 4.80062L9.21375 4.7625L9.24687 4.7425L9.28063 4.7225L9.31437 4.7025L9.3475 4.6825L9.38188 4.66313L9.41562 4.64313C9.52812 4.5775 9.64188 4.51375 9.75625 4.45125L9.79062 4.4325L9.82563 4.41437L9.86 4.39563L9.88625 4.38125L9.89437 4.3775L9.92937 4.35875C11.7469 3.40875 13.8156 2.87063 16.0094 2.87063C16.8019 2.87063 17.4444 2.22813 17.4444 1.43562C17.4444 0.643125 16.8019 0 16.0094 0C13.3594 0 10.8594 0.644375 8.6575 1.78437ZM21.3625 16.8769C22.275 16.2875 22.2725 15.6313 21.3625 15.1094L14.0437 10.0131C13.3 9.54688 12.5244 9.82063 12.545 10.7919L12.5737 21.0444C12.6381 22.0969 13.2388 22.3856 14.125 21.8988L21.3625 16.8769ZM18.4931 28.9131C16.9938 29.2131 16.9163 31.34 18.4494 31.7231C18.6444 31.7644 18.8394 31.7712 19.0362 31.7319C19.99 31.5731 21.0575 31.2325 21.9562 30.8769C22.4119 30.6975 22.7063 30.3219 22.8231 29.8544C23.07 28.7263 21.9613 27.7894 20.8862 28.2131C20.1531 28.505 19.2713 28.7837 18.4931 28.9131ZM25.0675 25.5256C23.9275 26.6213 25.1356 28.5081 26.6381 27.8781C26.8006 27.8025 26.9156 27.7256 27.0475 27.6044C27.7731 26.9344 28.4669 26.1075 29.0438 25.3062C29.3162 24.93 29.3781 24.4375 29.2281 24.0019C28.8375 22.9 27.3881 22.6981 26.7025 23.6444C26.2331 24.2987 25.6594 24.9794 25.0675 25.5256ZM28.7738 19.135C28.4125 20.7144 30.5294 21.61 31.4056 20.1981C31.4781 20.075 31.535 19.9381 31.5669 19.7981C31.8038 18.8144 31.9537 17.8019 31.9994 16.7906C32.0412 15.2662 30.055 14.715 29.305 16.04C29.1969 16.2481 29.1444 16.4275 29.1313 16.6625C29.0863 17.5094 28.9719 18.31 28.7738 19.135ZM28.4381 11.7388C28.9281 13.1263 30.9338 12.9819 31.2094 11.5125C31.2469 11.2675 31.2344 11.0363 31.1513 10.8006C30.8294 9.84875 30.3906 8.89625 29.8888 8.02625C29.1381 6.73375 27.1244 7.31938 27.2175 8.85563C27.2881 9.56812 28.1469 10.8769 28.4381 11.7388ZM24.1631 5.70625C25.3212 6.61625 26.9625 5.38375 26.355 3.98187C26.2556 3.7675 26.1194 3.5925 25.9344 3.4475C25.1375 2.815 24.2881 2.27125 23.3875 1.79813C21.9569 1.08313 20.6038 2.83375 21.6656 4.04063C21.7825 4.16687 21.9106 4.26437 22.0631 4.345C22.8063 4.73438 23.5062 5.185 24.1631 5.70625Z" fill="#ED932A"/>
</g>
<defs>
<clipPath id="clip0_764_1267">
<rect width="32" height="31.7669" fill="white"/>
</clipPath>
</defs>
</svg>
