<svg width="11" height="16" viewBox="0 0 11 16" fill="none" xmlns="http://www.w3.org/2000/svg">
<path d="M9.85235 9.03802L2.28784 15.6559C1.39644 16.4369 5.0739e-07 15.8022 5.0739e-07 14.6169V1.38106C-0.000226934 1.11579 0.0760146 0.856073 0.219595 0.633015C0.363176 0.409956 0.56801 0.233013 0.809566 0.123373C1.05112 0.0137337 1.31916 -0.0239541 1.58159 0.014823C1.84401 0.0536002 2.0897 0.167198 2.28922 0.342014L9.85097 6.95992C9.99918 7.08944 10.118 7.24916 10.1994 7.42838C10.2807 7.60759 10.3229 7.80214 10.3229 7.99897C10.3229 8.1958 10.2807 8.39035 10.1994 8.56956C10.118 8.74878 9.99918 8.9085 9.85097 9.03802H9.85235Z" fill="#7244F9"/>
</svg>
