<svg width="32" height="32" viewBox="0 0 32 32" fill="none" xmlns="http://www.w3.org/2000/svg">
<path d="M26 5C26 4.20435 26.3161 3.44129 26.8787 2.87868C27.4413 2.31607 28.2044 2 29 2C29.7956 2 30.5587 2.31607 31.1213 2.87868C31.6839 3.44129 32 4.20435 32 5V27C32 27.7956 31.6839 28.5587 31.1213 29.1213C30.5587 29.6839 29.7956 30 29 30C28.2044 30 27.4413 29.6839 26.8787 29.1213C26.3161 28.5587 26 27.7956 26 27V5ZM24 6.448C19.866 8.348 14.922 9.41 10 9.76V22.234C10.7265 22.2748 11.452 22.3315 12.176 22.404C16.282 22.812 20.252 23.74 24 25.524V6.448ZM8 22.13V9.868C6.64 9.922 5.202 9.954 3.984 9.974C2.92468 9.98868 1.91351 10.4189 1.16833 11.1719C0.42314 11.925 0.00356957 12.9406 0 14L0 18C0 20.212 1.792 21.992 3.988 22.018L4.98 22.034C5.98701 22.0541 6.99375 22.0861 8 22.13ZM10.78 24.292C11.3507 24.3347 11.9173 24.3867 12.48 24.448L12.986 27.828C13.0411 28.1173 13.0316 28.4151 12.9582 28.7003C12.8849 28.9854 12.7495 29.2509 12.5617 29.4776C12.3738 29.7044 12.1383 29.8869 11.8718 30.0121C11.6053 30.1374 11.3144 30.2022 11.02 30.202H9.924C9.53524 30.202 9.15492 30.0886 8.82956 29.8759C8.50419 29.6631 8.24789 29.3601 8.092 29.004L5.464 24.044C6.5925 24.0722 7.72059 24.1149 8.848 24.172C9.50267 24.2067 10.1467 24.2467 10.78 24.292Z" fill="#ED932A"/>
</svg>
