<svg width="469" height="462" viewBox="0 0 469 462" fill="none" xmlns="http://www.w3.org/2000/svg">
<path d="M48.5499 117.64C129.39 5.00001 264.78 -7.12999 330 3.54001C422.11 18.61 465.81 91.71 468 133.79C472.69 222.19 431 232.79 445.4 276.94C463.89 333.64 452.24 387.88 379.66 429.74C324.79 461.38 130.66 498.99 36.5399 382.12C-23.8801 307.08 -1.12007 186.86 48.5499 117.64Z" fill="#263238"/>
<path d="M320 407.37C333.687 407.48 347.231 404.588 359.68 398.9C378.27 390.44 400.02 364.67 404.93 350.84C416.68 317.77 397.93 300.39 379.93 298.09C346.93 293.85 333.67 325.09 310.82 333.47C303.63 336.12 295.94 337.04 288.44 338.6C275.86 341.21 266.73 350.38 263.56 362.6C260.39 374.82 269.56 387.6 278.8 394.73C287.87 401.73 299.15 405.32 310.5 406.73C313.653 407.112 316.824 407.326 320 407.37Z" fill="#37474F"/>
<path d="M288.58 50.56C262.76 64.74 243.29 89.46 260.22 118.12C268.79 132.64 286.57 142.48 302.16 146.78C317.07 150.89 331.96 157.31 343.16 168.28C355.01 179.89 363.06 193.68 378.69 201.09C396.57 209.56 413.4 205.69 427.18 192.37C442.59 177.48 443.88 150.74 440.27 130.71C431.27 80.89 384.55 36.99 332.5 37.81C319.35 38 303 42.65 288.58 50.56Z" fill="#37474F"/>
<path d="M73.2701 104.58C72.8901 105.08 72.5201 105.58 72.1501 106.12C63.4401 118.66 66.0001 138.8 83.2401 142.81C85.5043 143.32 87.854 143.315 90.116 142.796C92.3781 142.276 94.4948 141.256 96.3101 139.81C100.58 136.5 101.31 131.39 104.46 127.2C107.61 123.01 112.79 120.4 116.21 116.27C117.82 114.305 119.006 112.028 119.694 109.583C120.382 107.137 120.558 104.576 120.21 102.06C118.91 92.99 109.89 90.31 101.87 90.25C96.3103 90.2124 90.8206 91.4912 85.8498 93.9818C80.879 96.4724 76.5683 100.104 73.2701 104.58Z" fill="#37474F"/>
<path d="M23.9001 99.77C21.2001 94.71 21.9001 87 23.4301 80.85C27.6601 64.37 35.7001 48.76 47.3701 36.37C62.23 20.59 83.6401 10.37 105.55 10.66C111.96 10.75 122.33 12.06 126.86 17.25C131.16 22.19 126.52 26.57 122.04 29.12C96.53 43.64 73.7701 59 55.4901 80.88C50.4001 86.97 45.6401 93.42 39.6101 98.58C37.1901 100.66 34.4301 102.58 31.2701 103.05C29.4601 103.32 25.6601 103.08 23.9001 99.77Z" fill="#263238"/>
</svg>
