<svg width="32" height="32" viewBox="0 0 32 32" fill="none" xmlns="http://www.w3.org/2000/svg">
<g clip-path="url(#clip0_764_1244)">
<path d="M5 8C5.26522 8 5.51957 7.89464 5.70711 7.70711C5.89464 7.51957 6 7.26522 6 7C6 6.73478 5.89464 6.48043 5.70711 6.29289C5.51957 6.10536 5.26522 6 5 6C4.73478 6 4.48043 6.10536 4.29289 6.29289C4.10536 6.48043 4 6.73478 4 7C4 7.26522 4.10536 7.51957 4.29289 7.70711C4.48043 7.89464 4.73478 8 5 8ZM9 7C9 7.26522 8.89464 7.51957 8.70711 7.70711C8.51957 7.89464 8.26522 8 8 8C7.73478 8 7.48043 7.89464 7.29289 7.70711C7.10536 7.51957 7 7.26522 7 7C7 6.73478 7.10536 6.48043 7.29289 6.29289C7.48043 6.10536 7.73478 6 8 6C8.26522 6 8.51957 6.10536 8.70711 6.29289C8.89464 6.48043 9 6.73478 9 7ZM11 8C11.2652 8 11.5196 7.89464 11.7071 7.70711C11.8946 7.51957 12 7.26522 12 7C12 6.73478 11.8946 6.48043 11.7071 6.29289C11.5196 6.10536 11.2652 6 11 6C10.7348 6 10.4804 6.10536 10.2929 6.29289C10.1054 6.48043 10 6.73478 10 7C10 7.26522 10.1054 7.51957 10.2929 7.70711C10.4804 7.89464 10.7348 8 11 8Z" fill="#ED932A"/>
<path d="M4 2C2.93913 2 1.92172 2.42143 1.17157 3.17157C0.421427 3.92172 0 4.93913 0 6L0 26C0 27.0609 0.421427 28.0783 1.17157 28.8284C1.92172 29.5786 2.93913 30 4 30H28C29.0609 30 30.0783 29.5786 30.8284 28.8284C31.5786 28.0783 32 27.0609 32 26V6C32 4.93913 31.5786 3.92172 30.8284 3.17157C30.0783 2.42143 29.0609 2 28 2H4ZM30 6V10H2V6C2 5.46957 2.21071 4.96086 2.58579 4.58579C2.96086 4.21071 3.46957 4 4 4H28C28.5304 4 29.0391 4.21071 29.4142 4.58579C29.7893 4.96086 30 5.46957 30 6ZM4 28C3.46957 28 2.96086 27.7893 2.58579 27.4142C2.21071 27.0391 2 26.5304 2 26V12H30V26C30 26.5304 29.7893 27.0391 29.4142 27.4142C29.0391 27.7893 28.5304 28 28 28H4Z" fill="#ED932A"/>
<g clip-path="url(#clip1_764_1244)">
<path d="M17.9711 14.5365C17.9877 14.4825 17.9935 14.4258 17.9882 14.3695C17.9829 14.3133 17.9666 14.2587 17.9401 14.2088C17.9137 14.1589 17.8777 14.1146 17.8342 14.0787C17.7906 14.0427 17.7405 14.0156 17.6865 13.999C17.6325 13.9824 17.5758 13.9766 17.5195 13.9819C17.4633 13.9872 17.4087 14.0036 17.3588 14.03C17.3089 14.0564 17.2646 14.0924 17.2286 14.136C17.1926 14.1795 17.1656 14.2297 17.149 14.2836L13.709 25.4636C13.6754 25.5727 13.6866 25.6905 13.74 25.7913C13.7934 25.8921 13.8846 25.9676 13.9936 26.0011C14.1027 26.0347 14.2205 26.0235 14.3213 25.9701C14.4221 25.9167 14.4976 25.8255 14.5311 25.7165L17.9711 14.5365ZM13.1345 16.6856C13.1745 16.7256 13.2063 16.773 13.228 16.8253C13.2497 16.8775 13.2608 16.9335 13.2608 16.9901C13.2608 17.0466 13.2497 17.1026 13.228 17.1549C13.2063 17.2071 13.1745 17.2546 13.1345 17.2945L10.4281 20.0001L13.1345 22.7056C13.2152 22.7864 13.2606 22.8959 13.2606 23.0101C13.2606 23.1242 13.2152 23.2338 13.1345 23.3145C13.0537 23.3952 12.9442 23.4406 12.8301 23.4406C12.7159 23.4406 12.6064 23.3952 12.5256 23.3145L9.51561 20.3045C9.47557 20.2646 9.4438 20.2171 9.42212 20.1649C9.40044 20.1126 9.38928 20.0566 9.38928 20.0001C9.38928 19.9435 9.40044 19.8875 9.42212 19.8353C9.4438 19.783 9.47557 19.7356 9.51561 19.6956L12.5256 16.6856C12.5656 16.6456 12.613 16.6138 12.6652 16.5921C12.7175 16.5705 12.7735 16.5593 12.8301 16.5593C12.8866 16.5593 12.9426 16.5705 12.9949 16.5921C13.0471 16.6138 13.0945 16.6456 13.1345 16.6856ZM18.5456 16.6856C18.5056 16.7256 18.4738 16.773 18.4521 16.8253C18.4304 16.8775 18.4193 16.9335 18.4193 16.9901C18.4193 17.0466 18.4304 17.1026 18.4521 17.1549C18.4738 17.2071 18.5056 17.2546 18.5456 17.2945L21.252 20.0001L18.5456 22.7056C18.5056 22.7456 18.4739 22.7931 18.4523 22.8453C18.4306 22.8975 18.4195 22.9535 18.4195 23.0101C18.4195 23.0666 18.4306 23.1226 18.4523 23.1748C18.4739 23.2271 18.5056 23.2745 18.5456 23.3145C18.5856 23.3545 18.6331 23.3862 18.6853 23.4078C18.7375 23.4295 18.7935 23.4406 18.8501 23.4406C18.9066 23.4406 18.9626 23.4295 19.0148 23.4078C19.067 23.3862 19.1145 23.3545 19.1545 23.3145L22.1645 20.3045C22.2045 20.2646 22.2363 20.2171 22.258 20.1649C22.2797 20.1126 22.2908 20.0566 22.2908 20.0001C22.2908 19.9435 22.2797 19.8875 22.258 19.8353C22.2363 19.783 22.2045 19.7356 22.1645 19.6956L19.1545 16.6856C19.1145 16.6456 19.0671 16.6138 19.0149 16.5921C18.9626 16.5705 18.9066 16.5593 18.8501 16.5593C18.7935 16.5593 18.7375 16.5705 18.6852 16.5921C18.633 16.6138 18.5856 16.6456 18.5456 16.6856Z" fill="#ED932A"/>
</g>
</g>
<defs>
<clipPath id="clip0_764_1244">
<rect width="32" height="32" fill="white"/>
</clipPath>
<clipPath id="clip1_764_1244">
<rect width="13.76" height="13.76" fill="white" transform="translate(8.96002 13.1201)"/>
</clipPath>
</defs>
</svg>
