<svg width="24" height="24" viewBox="0 0 24 24" fill="none" xmlns="http://www.w3.org/2000/svg">
<g clip-path="url(#clip0_781_2831)">
<path d="M11.9902 0C8.73373 0 8.32423 0.015 7.04473 0.072C5.76523 0.132 4.89373 0.333 4.13023 0.63C3.329 0.930488 2.60345 1.4031 2.00473 2.0145C1.39333 2.61321 0.920723 3.33877 0.620234 4.14C0.323234 4.902 0.120734 5.775 0.0622344 7.05C0.00523438 8.3325 -0.00976562 8.7405 -0.00976562 12.0015C-0.00976562 15.2595 0.00523438 15.6675 0.0622344 16.947C0.122234 18.225 0.323234 19.0965 0.620234 19.86C0.927734 20.649 1.33723 21.318 2.00473 21.9855C2.67073 22.653 3.33973 23.064 4.12873 23.37C4.89373 23.667 5.76373 23.8695 7.04173 23.928C8.32273 23.985 8.73073 24 11.9902 24C15.2497 24 15.6562 23.985 16.9372 23.928C18.2137 23.868 19.0882 23.667 19.8517 23.37C20.6524 23.0693 21.3775 22.5967 21.9757 21.9855C22.6432 21.318 23.0527 20.649 23.3602 19.86C23.6557 19.0965 23.8582 18.225 23.9182 16.947C23.9752 15.6675 23.9902 15.2595 23.9902 12C23.9902 8.7405 23.9752 8.3325 23.9182 7.0515C23.8582 5.775 23.6557 4.902 23.3602 4.14C23.0597 3.33877 22.5871 2.61321 21.9757 2.0145C21.377 1.4031 20.6515 0.930488 19.8502 0.63C19.0852 0.333 18.2122 0.1305 16.9357 0.072C15.6547 0.015 15.2482 0 11.9872 0H11.9902ZM10.9147 2.163H11.9917C15.1957 2.163 15.5752 2.1735 16.8397 2.232C18.0097 2.2845 18.6457 2.481 19.0687 2.6445C19.6282 2.862 20.0287 3.123 20.4487 3.543C20.8687 3.963 21.1282 4.362 21.3457 4.923C21.5107 5.3445 21.7057 5.9805 21.7582 7.1505C21.8167 8.415 21.8287 8.7945 21.8287 11.997C21.8287 15.1995 21.8167 15.5805 21.7582 16.845C21.7057 18.015 21.5092 18.6495 21.3457 19.0725C21.152 19.5929 20.8451 20.0637 20.4472 20.451C20.0272 20.871 19.6282 21.1305 19.0672 21.348C18.6472 21.513 18.0112 21.708 16.8397 21.762C15.5752 21.819 15.1957 21.8325 11.9917 21.8325C8.78773 21.8325 8.40673 21.819 7.14223 21.762C5.97223 21.708 5.33773 21.513 4.91473 21.348C4.39398 21.1549 3.92263 20.8485 3.53473 20.451C3.13614 20.0634 2.82873 19.592 2.63473 19.071C2.47123 18.6495 2.27473 18.0135 2.22223 16.8435C2.16523 15.579 2.15323 15.1995 2.15323 11.994C2.15323 8.7885 2.16523 8.412 2.22223 7.1475C2.27623 5.9775 2.47123 5.3415 2.63623 4.9185C2.85373 4.359 3.11473 3.9585 3.53473 3.5385C3.95473 3.1185 4.35373 2.859 4.91473 2.6415C5.33773 2.4765 5.97223 2.2815 7.14223 2.2275C8.24923 2.1765 8.67823 2.1615 10.9147 2.16V2.163ZM18.3967 4.155C18.2076 4.155 18.0204 4.19225 17.8457 4.26461C17.671 4.33698 17.5122 4.44305 17.3785 4.57677C17.2448 4.71048 17.1387 4.86923 17.0663 5.04394C16.994 5.21864 16.9567 5.4059 16.9567 5.595C16.9567 5.7841 16.994 5.97135 17.0663 6.14606C17.1387 6.32077 17.2448 6.47952 17.3785 6.61323C17.5122 6.74695 17.671 6.85302 17.8457 6.92539C18.0204 6.99775 18.2076 7.035 18.3967 7.035C18.7786 7.035 19.1449 6.88329 19.415 6.61323C19.685 6.34318 19.8367 5.97691 19.8367 5.595C19.8367 5.21309 19.685 4.84682 19.415 4.57677C19.1449 4.30671 18.7786 4.155 18.3967 4.155ZM11.9917 5.838C11.1743 5.82525 10.3626 5.97523 9.6037 6.27921C8.84483 6.58319 8.15401 7.03511 7.57146 7.60863C6.98891 8.18216 6.52628 8.86585 6.2105 9.61989C5.89471 10.3739 5.73208 11.1833 5.73209 12.0007C5.73208 12.8182 5.89471 13.6276 6.2105 14.3816C6.52628 15.1356 6.98891 15.8193 7.57146 16.3929C8.15401 16.9664 8.84483 17.4183 9.6037 17.7223C10.3626 18.0263 11.1743 18.1763 11.9917 18.1635C13.6095 18.1383 15.1526 17.4779 16.2877 16.3249C17.4228 15.1719 18.0591 13.6188 18.0591 12.0007C18.0591 10.3827 17.4228 8.82962 16.2877 7.67662C15.1526 6.52363 13.6095 5.86324 11.9917 5.838ZM11.9917 7.9995C12.5171 7.9995 13.0373 8.10298 13.5227 8.30402C14.008 8.50506 14.449 8.79974 14.8205 9.17122C15.192 9.5427 15.4867 9.98371 15.6877 10.4691C15.8888 10.9544 15.9922 11.4746 15.9922 12C15.9922 12.5254 15.8888 13.0456 15.6877 13.5309C15.4867 14.0163 15.192 14.4573 14.8205 14.8288C14.449 15.2003 14.008 15.4949 13.5227 15.696C13.0373 15.897 12.5171 16.0005 11.9917 16.0005C10.9307 16.0005 9.91319 15.579 9.16295 14.8288C8.41271 14.0785 7.99123 13.061 7.99123 12C7.99123 10.939 8.41271 9.92146 9.16295 9.17122C9.91319 8.42098 10.9307 7.9995 11.9917 7.9995Z" fill="#EFEFEF"/>
</g>
<defs>
<clipPath id="clip0_781_2831">
<rect width="24" height="24" fill="white" transform="translate(-0.00976562)"/>
</clipPath>
</defs>
</svg>
