<svg width="24" height="24" viewBox="0 0 24 24" fill="none" xmlns="http://www.w3.org/2000/svg">
<g clip-path="url(#clip0_781_2829)">
<path fill-rule="evenodd" clip-rule="evenodd" d="M11.9902 0C5.36623 0 -0.00976562 5.376 -0.00976562 12C-0.00976562 18.624 5.36623 24 11.9902 24C18.6022 24 23.9902 18.624 23.9902 12C23.9902 5.376 18.6022 0 11.9902 0ZM19.9162 5.532C21.3937 7.33079 22.2115 9.58083 22.2337 11.9085C21.8947 11.844 18.5107 11.154 15.1012 11.583C15.0232 11.415 14.9572 11.232 14.8792 11.0505C14.6707 10.5555 14.4367 10.0485 14.2027 9.5655C17.9767 8.031 19.6957 5.8185 19.9177 5.5305L19.9162 5.532ZM11.9902 1.77C14.5927 1.77 16.9747 2.745 18.7852 4.347C18.6022 4.608 17.0527 6.6765 13.4092 8.043C11.7292 4.959 9.86923 2.433 9.58273 2.043C10.372 1.8594 11.1799 1.76779 11.9902 1.77ZM7.62973 2.733C9.00355 4.63636 10.2724 6.61331 11.4307 8.655C6.64123 9.93 2.41123 9.9045 1.95523 9.9045C2.28556 8.35331 2.96946 6.89929 3.95369 5.65566C4.93793 4.41204 6.19592 3.41087 7.62973 2.733ZM1.73473 12.015V11.7C2.17723 11.715 7.14973 11.7795 12.2647 10.2435C12.5632 10.815 12.8362 11.4015 13.0972 11.9865L12.6922 12.1035C7.40924 13.809 4.59823 18.468 4.36273 18.8595C2.67084 16.9807 1.73464 14.5418 1.73473 12.0135V12.015ZM11.9902 22.2555C9.71284 22.2573 7.50035 21.4969 5.70523 20.0955C5.88523 19.7175 7.96873 15.7095 13.7467 13.692C13.7737 13.6785 13.7857 13.6785 13.8127 13.6665C14.7864 16.1812 15.5182 18.783 15.9982 21.4365C14.7325 21.9814 13.3683 22.2602 11.9902 22.2555ZM17.7052 20.499C17.6002 19.8735 17.0527 16.881 15.7132 13.197C18.9277 12.69 21.7387 13.5225 22.0897 13.6395C21.8715 15.0236 21.3691 16.3475 20.6143 17.5281C19.8595 18.7086 18.8685 19.7201 17.7037 20.499H17.7052Z" fill="#EFEFEF"/>
</g>
<defs>
<clipPath id="clip0_781_2829">
<rect width="24" height="24" fill="white" transform="translate(-0.00976562)"/>
</clipPath>
</defs>
</svg>
